<mxfile host="app.diagrams.net" agent="Mozilla/5.0 (X11; Linux x86_64) AppleWebKit/537.36 (KHTML, like Gecko) Chrome/132.0.0.0 Safari/537.36" version="26.0.9">
  <diagram name="Page-1" id="bP7QOVqqB6LoUAiwYSG2">
    <mxGraphModel grid="1" page="1" gridSize="10" guides="1" tooltips="1" connect="1" arrows="1" fold="1" pageScale="1" pageWidth="850" pageHeight="1100" math="0" shadow="0">
      <root>
        <mxCell id="0" />
        <mxCell id="1" parent="0" />
        <mxCell id="XgJeZKAawIUONZ9z8ICG-25" value="" style="group" connectable="0" vertex="1" parent="1">
          <mxGeometry y="80" width="360" height="160" as="geometry" />
        </mxCell>
        <mxCell id="XgJeZKAawIUONZ9z8ICG-10" value="" style="edgeStyle=orthogonalEdgeStyle;rounded=0;orthogonalLoop=1;jettySize=auto;html=1;entryX=0;entryY=0.5;entryDx=0;entryDy=0;fontColor=#B5739D;strokeColor=#B5739D;" edge="1" parent="XgJeZKAawIUONZ9z8ICG-25" source="XgJeZKAawIUONZ9z8ICG-3" target="XgJeZKAawIUONZ9z8ICG-2">
          <mxGeometry relative="1" as="geometry">
            <mxPoint x="177" y="49" as="targetPoint" />
          </mxGeometry>
        </mxCell>
        <mxCell id="XgJeZKAawIUONZ9z8ICG-3" value="&lt;font style=&quot;font-size: 16px; color: rgb(181, 115, 157);&quot;&gt;Request Line&lt;/font&gt;" style="text;html=1;align=center;verticalAlign=middle;whiteSpace=wrap;rounded=0;" vertex="1" parent="XgJeZKAawIUONZ9z8ICG-25">
          <mxGeometry y="30" width="98" height="30" as="geometry" />
        </mxCell>
        <mxCell id="XgJeZKAawIUONZ9z8ICG-11" value="" style="edgeStyle=orthogonalEdgeStyle;rounded=0;orthogonalLoop=1;jettySize=auto;html=1;strokeColor=#67AB9F;entryX=0;entryY=0.5;entryDx=0;entryDy=0;" edge="1" parent="XgJeZKAawIUONZ9z8ICG-25" source="XgJeZKAawIUONZ9z8ICG-5" target="XgJeZKAawIUONZ9z8ICG-9">
          <mxGeometry relative="1" as="geometry">
            <mxPoint x="160" y="105" as="targetPoint" />
          </mxGeometry>
        </mxCell>
        <mxCell id="XgJeZKAawIUONZ9z8ICG-5" value="&lt;font style=&quot;font-size: 16px; color: rgb(103, 171, 159);&quot;&gt;Headers&lt;/font&gt;" style="text;html=1;align=center;verticalAlign=middle;whiteSpace=wrap;rounded=0;" vertex="1" parent="XgJeZKAawIUONZ9z8ICG-25">
          <mxGeometry y="90" width="70" height="30" as="geometry" />
        </mxCell>
        <mxCell id="XgJeZKAawIUONZ9z8ICG-12" value="Request Message w/o Body" style="swimlane;whiteSpace=wrap;html=1;" vertex="1" parent="XgJeZKAawIUONZ9z8ICG-25">
          <mxGeometry x="130" width="230" height="160" as="geometry">
            <mxRectangle x="150" y="90" width="190" height="30" as="alternateBounds" />
          </mxGeometry>
        </mxCell>
        <mxCell id="XgJeZKAawIUONZ9z8ICG-2" value="&lt;font style=&quot;font-size: 16px; color: rgb(181, 115, 157);&quot;&gt;GET /index.html HTTP/1.1&lt;/font&gt;" style="text;html=1;align=left;verticalAlign=middle;whiteSpace=wrap;rounded=0;labelPosition=center;verticalLabelPosition=middle;" vertex="1" parent="XgJeZKAawIUONZ9z8ICG-12">
          <mxGeometry x="28" y="22.5" width="194" height="45" as="geometry" />
        </mxCell>
        <mxCell id="XgJeZKAawIUONZ9z8ICG-9" value="&lt;span style=&quot;color: rgb(103, 171, 159); background-color: transparent; font-size: 16px;&quot;&gt;&lt;b&gt;Host&lt;/b&gt;: www.example.com&lt;br&gt;&lt;/span&gt;&lt;span style=&quot;color: rgb(103, 171, 159); background-color: transparent; font-size: 16px;&quot;&gt;&lt;b&gt;User-Agent&lt;/b&gt;: Mozilla/5.0&lt;br&gt;&lt;/span&gt;&lt;font style=&quot;color: rgb(103, 171, 159); font-size: 16px;&quot;&gt;&lt;b&gt;Accept&lt;/b&gt;: text/html&lt;/font&gt;" style="text;html=1;align=left;verticalAlign=middle;whiteSpace=wrap;rounded=0;" vertex="1" parent="XgJeZKAawIUONZ9z8ICG-12">
          <mxGeometry x="28" y="67.5" width="194" height="74" as="geometry" />
        </mxCell>
        <mxCell id="XgJeZKAawIUONZ9z8ICG-26" value="" style="group" connectable="0" vertex="1" parent="1">
          <mxGeometry x="400" y="80" width="400" height="260" as="geometry" />
        </mxCell>
        <mxCell id="XgJeZKAawIUONZ9z8ICG-15" value="" style="edgeStyle=orthogonalEdgeStyle;rounded=0;orthogonalLoop=1;jettySize=auto;html=1;entryX=0;entryY=0.5;entryDx=0;entryDy=0;fontColor=#B5739D;strokeColor=#B5739D;" edge="1" parent="XgJeZKAawIUONZ9z8ICG-26" source="XgJeZKAawIUONZ9z8ICG-16" target="XgJeZKAawIUONZ9z8ICG-20">
          <mxGeometry relative="1" as="geometry">
            <mxPoint x="177" y="49" as="targetPoint" />
          </mxGeometry>
        </mxCell>
        <mxCell id="XgJeZKAawIUONZ9z8ICG-16" value="&lt;font style=&quot;font-size: 16px; color: rgb(181, 115, 157);&quot;&gt;Request Line&lt;/font&gt;" style="text;html=1;align=left;verticalAlign=middle;whiteSpace=wrap;rounded=0;" vertex="1" parent="XgJeZKAawIUONZ9z8ICG-26">
          <mxGeometry y="30" width="98" height="30" as="geometry" />
        </mxCell>
        <mxCell id="XgJeZKAawIUONZ9z8ICG-17" value="" style="edgeStyle=orthogonalEdgeStyle;rounded=0;orthogonalLoop=1;jettySize=auto;html=1;strokeColor=#67AB9F;entryX=0;entryY=0.5;entryDx=0;entryDy=0;" edge="1" parent="XgJeZKAawIUONZ9z8ICG-26" source="XgJeZKAawIUONZ9z8ICG-18" target="XgJeZKAawIUONZ9z8ICG-21">
          <mxGeometry relative="1" as="geometry">
            <mxPoint x="160" y="105" as="targetPoint" />
          </mxGeometry>
        </mxCell>
        <mxCell id="XgJeZKAawIUONZ9z8ICG-18" value="&lt;font style=&quot;font-size: 16px; color: rgb(103, 171, 159);&quot;&gt;Headers&lt;/font&gt;" style="text;html=1;align=left;verticalAlign=middle;whiteSpace=wrap;rounded=0;" vertex="1" parent="XgJeZKAawIUONZ9z8ICG-26">
          <mxGeometry y="107.5" width="70" height="30" as="geometry" />
        </mxCell>
        <mxCell id="XgJeZKAawIUONZ9z8ICG-19" value="Request Message with Body" style="swimlane;whiteSpace=wrap;html=1;" vertex="1" parent="XgJeZKAawIUONZ9z8ICG-26">
          <mxGeometry x="130" width="270" height="260" as="geometry">
            <mxRectangle x="150" y="90" width="190" height="30" as="alternateBounds" />
          </mxGeometry>
        </mxCell>
        <mxCell id="XgJeZKAawIUONZ9z8ICG-21" value="&lt;div&gt;&lt;font style=&quot;color: rgb(103, 171, 159); font-size: 16px;&quot;&gt;&lt;span class=&quot;hljs-section&quot;&gt;&lt;b&gt;Host&lt;/b&gt;: www.example.com&lt;/span&gt;&lt;br&gt;&lt;span class=&quot;hljs-section&quot;&gt;&lt;b&gt;User-Agent&lt;/b&gt;: Mozilla/5.0&lt;/span&gt;&lt;br&gt;&lt;span class=&quot;hljs-section&quot;&gt;&lt;b&gt;Content-Type&lt;/b&gt;: application/x-www-form-urlencoded&lt;/span&gt;&lt;br&gt;&lt;span class=&quot;hljs-section&quot;&gt;&lt;b&gt;Content-Length&lt;/b&gt;: 29&lt;/span&gt;&lt;/font&gt;&lt;/div&gt;" style="text;html=1;align=left;verticalAlign=middle;whiteSpace=wrap;rounded=0;" vertex="1" parent="XgJeZKAawIUONZ9z8ICG-19">
          <mxGeometry x="28" y="67.5" width="214" height="110" as="geometry" />
        </mxCell>
        <mxCell id="XgJeZKAawIUONZ9z8ICG-20" value="&lt;font style=&quot;font-size: 16px; color: rgb(181, 115, 157);&quot;&gt;POST /login HTTP/1.1&lt;/font&gt;" style="text;html=1;align=left;verticalAlign=middle;whiteSpace=wrap;rounded=0;labelPosition=center;verticalLabelPosition=middle;" vertex="1" parent="XgJeZKAawIUONZ9z8ICG-19">
          <mxGeometry x="28" y="22.5" width="194" height="45" as="geometry" />
        </mxCell>
        <mxCell id="XgJeZKAawIUONZ9z8ICG-22" value="&lt;font style=&quot;font-size: 16px; color: rgb(126, 166, 224);&quot;&gt;username=admin&amp;amp;&lt;/font&gt;&lt;div&gt;&lt;font style=&quot;font-size: 16px; color: rgb(126, 166, 224);&quot;&gt;password=1234&lt;/font&gt;&lt;/div&gt;" style="text;html=1;align=left;verticalAlign=middle;whiteSpace=wrap;rounded=0;labelPosition=center;verticalLabelPosition=middle;" vertex="1" parent="XgJeZKAawIUONZ9z8ICG-19">
          <mxGeometry x="28" y="190" width="194" height="45" as="geometry" />
        </mxCell>
        <mxCell id="XgJeZKAawIUONZ9z8ICG-24" style="edgeStyle=orthogonalEdgeStyle;rounded=0;orthogonalLoop=1;jettySize=auto;html=1;entryX=0;entryY=0.5;entryDx=0;entryDy=0;fontColor=#7EA6E0;strokeColor=#7EA6E0;" edge="1" parent="XgJeZKAawIUONZ9z8ICG-26" source="XgJeZKAawIUONZ9z8ICG-23" target="XgJeZKAawIUONZ9z8ICG-22">
          <mxGeometry relative="1" as="geometry" />
        </mxCell>
        <mxCell id="XgJeZKAawIUONZ9z8ICG-23" value="&lt;font style=&quot;font-size: 16px; color: rgb(126, 166, 224);&quot;&gt;Body&lt;/font&gt;" style="text;html=1;align=left;verticalAlign=middle;whiteSpace=wrap;rounded=0;" vertex="1" parent="XgJeZKAawIUONZ9z8ICG-26">
          <mxGeometry y="197.5" width="50" height="30" as="geometry" />
        </mxCell>
      </root>
    </mxGraphModel>
  </diagram>
</mxfile>
